<svg width="100" height="100" viewBox="0 0 100 100" fill="none" xmlns="http://www.w3.org/2000/svg">
<path d="M79.1667 79.1666H20.8333V33.3333H79.1667M79.1667 12.5H75V4.16663H66.6667V12.5H33.3333V4.16663H25V12.5H20.8333C16.2083 12.5 12.5 16.25 12.5 20.8333V79.1666C12.5 81.3768 13.378 83.4964 14.9408 85.0592C16.5036 86.622 18.6232 87.5 20.8333 87.5H79.1667C81.3768 87.5 83.4964 86.622 85.0592 85.0592C86.622 83.4964 87.5 81.3768 87.5 79.1666V20.8333C87.5 18.6232 86.622 16.5035 85.0592 14.9407C83.4964 13.3779 81.3768 12.5 79.1667 12.5ZM68.875 46.0833L64.4583 41.6666L44.125 62L35.2917 53.1666L30.875 57.5833L44.125 70.8333L68.875 46.0833Z" fill="#7B3FE4"/>
</svg>
