<svg width="100" height="100" viewBox="0 0 100 100" fill="none" xmlns="http://www.w3.org/2000/svg">
<path d="M37.5 12.5C41.9203 12.5 46.1595 14.2559 49.2852 17.3816C52.4108 20.5072 54.1667 24.7464 54.1667 29.1667H20.8334C20.8334 24.7464 22.5893 20.5072 25.7149 17.3816C28.8405 14.2559 33.0798 12.5 37.5 12.5ZM49.3334 40.9167L45.8334 75H41.6667V79.1667C41.6667 81.3768 42.5447 83.4964 44.1075 85.0592C45.6703 86.622 47.7899 87.5 50 87.5C52.2102 87.5 54.3298 86.622 55.8926 85.0592C57.4554 83.4964 58.3334 81.3768 58.3334 79.1667V58.3333C58.3334 53.9131 60.0893 49.6738 63.2149 46.5482C66.3405 43.4226 70.5798 41.6667 75 41.6667H83.3334L79.1667 45.8333L83.3334 50H75C72.7899 50 70.6703 50.878 69.1075 52.4408C67.5447 54.0036 66.6667 56.1232 66.6667 58.3333V79.1667C66.6667 83.5869 64.9108 87.8262 61.7852 90.9518C58.6595 94.0774 54.4203 95.8333 50 95.8333C45.5798 95.8333 41.3405 94.0774 38.2149 90.9518C35.0893 87.8262 33.3334 83.5869 33.3334 79.1667V75H29.1667L25.6667 40.9167C23.625 38.8333 22.125 36.25 21.375 33.3333H53.625C52.875 36.25 51.375 38.8333 49.3334 40.9167ZM37.5 45.8333C36.395 45.8333 35.3352 46.2723 34.5538 47.0537C33.7724 47.8351 33.3334 48.8949 33.3334 50C33.3334 51.1051 33.7724 52.1649 34.5538 52.9463C35.3352 53.7277 36.395 54.1667 37.5 54.1667C38.6051 54.1667 39.6649 53.7277 40.4463 52.9463C41.2277 52.1649 41.6667 51.1051 41.6667 50C41.6667 48.8949 41.2277 47.8351 40.4463 47.0537C39.6649 46.2723 38.6051 45.8333 37.5 45.8333Z" fill="#7B3FE4"/>
</svg>
