<svg width="100" height="100" viewBox="0 0 100 100" fill="none" xmlns="http://www.w3.org/2000/svg">
<path d="M50 22.9166C53.8677 22.9166 57.5771 24.4531 60.312 27.188C63.0469 29.9229 64.5833 33.6322 64.5833 37.5C64.5833 41.3677 63.0469 45.077 60.312 47.8119C57.5771 50.5468 53.8677 52.0833 50 52.0833C46.1323 52.0833 42.4229 50.5468 39.688 47.8119C36.9531 45.077 35.4167 41.3677 35.4167 37.5C35.4167 33.6322 36.9531 29.9229 39.688 27.188C42.4229 24.4531 46.1323 22.9166 50 22.9166M20.8333 33.3333C23.1667 33.3333 25.3333 33.9583 27.2083 35.0833C26.5833 41.0416 28.3333 46.9583 31.9167 51.5833C29.8333 55.5833 25.6667 58.3333 20.8333 58.3333C17.5181 58.3333 14.3387 57.0163 11.9945 54.6721C9.65029 52.3279 8.33333 49.1485 8.33333 45.8333C8.33333 42.5181 9.65029 39.3387 11.9945 36.9945C14.3387 34.6503 17.5181 33.3333 20.8333 33.3333M79.1667 33.3333C82.4819 33.3333 85.6613 34.6503 88.0055 36.9945C90.3497 39.3387 91.6667 42.5181 91.6667 45.8333C91.6667 49.1485 90.3497 52.3279 88.0055 54.6721C85.6613 57.0163 82.4819 58.3333 79.1667 58.3333C74.3333 58.3333 70.1667 55.5833 68.0833 51.5833C71.6667 46.9583 73.4167 41.0416 72.7917 35.0833C74.6667 33.9583 76.8333 33.3333 79.1667 33.3333ZM22.9167 76.0416C22.9167 67.4166 35.0417 60.4166 50 60.4166C64.9583 60.4166 77.0833 67.4166 77.0833 76.0416V83.3333H22.9167V76.0416ZM0 83.3333V77.0833C0 71.2916 7.875 66.4166 18.5417 65C16.0833 67.8333 14.5833 71.75 14.5833 76.0416V83.3333H0ZM100 83.3333H85.4167V76.0416C85.4167 71.75 83.9167 67.8333 81.4583 65C92.125 66.4166 100 71.2916 100 77.0833V83.3333Z" fill="#7B3FE4"/>
</svg>
