<svg width="100" height="100" viewBox="0 0 100 100" fill="none" xmlns="http://www.w3.org/2000/svg">
<path d="M66.6667 87.5H33.3334C32.2283 87.5 31.1685 87.061 30.3871 86.2796C29.6057 85.4982 29.1667 84.4384 29.1667 83.3333V50.2917L23.75 54.6667C22.125 56.25 19.5 56.25 17.875 54.6667L6.08337 42.875C4.45837 41.25 4.45837 38.625 6.08337 37L30.5834 12.5H37.5C37.5 17.0833 43.0834 20.8333 50 20.8333C56.9167 20.8333 62.5 17.0833 62.5 12.5H69.4167L93.9167 37C95.5417 38.625 95.5417 41.25 93.9167 42.875L82.125 54.6667C80.5 56.25 77.875 56.25 76.25 54.6667L70.8334 50.2917V83.3333C70.8334 84.4384 70.3944 85.4982 69.613 86.2796C68.8316 87.061 67.7718 87.5 66.6667 87.5ZM85.0834 39.9167L67.125 22C65.8334 23.4583 64.2917 24.75 62.5 25.8333C59 27.9167 54.7084 29.1667 50 29.1667C42.9167 29.1667 36.625 26.3333 32.875 22L14.9167 39.9167L20.8334 45.8333L33.3334 37.5H37.5V79.1667H62.5V37.5H66.6667L79.1667 45.8333L85.0834 39.9167Z" fill="#7B3FE4"/>
</svg>
