<?xml version="1.0" standalone="no"?>
<!DOCTYPE svg PUBLIC "-//W3C//DTD SVG 20010904//EN"
 "http://www.w3.org/TR/2001/REC-SVG-20010904/DTD/svg10.dtd">
<svg version="1.0" xmlns="http://www.w3.org/2000/svg"
 width="1024.000000pt" height="1024.000000pt" viewBox="0 0 1024.000000 1024.000000"
 preserveAspectRatio="xMidYMid meet">

<g transform="translate(0.000000,1024.000000) scale(0.100000,-0.100000)"
fill="#000000" stroke="none">
<path d="M4839 8595 c-702 -96 -1316 -562 -1596 -1212 -214 -497 -227 -1060
-36 -1548 158 -401 415 -725 770 -967 215 -147 481 -259 743 -312 278 -56 643
-45 925 29 424 111 815 372 1098 732 48 61 87 114 87 117 0 3 14 25 30 50 47
69 155 291 188 386 95 274 134 561 113 846 -45 609 -344 1146 -841 1510 -262
192 -582 320 -921 369 -130 18 -424 18 -560 0z m616 -757 c6 -6 -67 -88 -267
-302 l-67 -71 -53 55 c-143 150 -288 309 -288 317 0 10 665 11 675 1z m-581
-256 c89 -96 162 -177 164 -182 5 -13 -151 -130 -174 -130 -29 0 -40 16 -134
190 -46 85 -94 172 -107 193 l-24 37 33 60 33 60 24 -27 c13 -16 96 -106 185
-201z m735 163 l31 -54 -69 -123 c-159 -284 -165 -293 -192 -296 -18 -2 -46
13 -102 58 -42 33 -77 63 -77 66 0 9 367 404 375 404 2 0 17 -25 34 -55z
m-974 -320 c118 -210 126 -222 172 -241 67 -29 114 -15 207 58 l51 41 3 -399
c1 -281 6 -401 14 -409 8 -7 9 -6 4 3 -4 6 -2 12 4 12 7 0 10 6 7 14 -3 8 1
20 9 26 8 7 14 18 14 24 0 6 -5 4 -10 -4 -8 -12 -9 -9 -7 10 2 14 10 25 18 26
9 1 10 0 1 -3 -7 -3 -10 -9 -6 -14 3 -5 8 -7 12 -5 12 7 5 -48 -11 -85 -15
-36 -37 -60 -37 -40 0 5 6 12 13 14 7 3 5 6 -5 6 -17 1 -18 -27 -18 -462 0
-347 3 -466 12 -475 7 -7 24 -12 38 -12 14 0 31 5 38 12 9 9 12 138 12 521 0
482 -1 509 -17 496 -17 -13 -17 -13 0 13 15 25 17 62 17 378 0 192 3 350 6
350 3 0 31 -20 62 -44 86 -67 142 -82 200 -52 44 23 64 52 176 253 l107 191
92 -33 c257 -92 304 -112 359 -154 65 -48 128 -136 152 -208 18 -58 81 -661
69 -673 -5 -5 -395 -28 -402 -24 -2 2 -7 119 -12 260 -6 161 -13 262 -20 271
-17 20 -67 16 -79 -7 -7 -13 -7 -99 0 -282 5 -145 10 -289 10 -321 l0 -58 -57
44 c-92 70 -158 100 -235 104 -58 3 -70 1 -88 -17 -12 -12 -19 -28 -16 -36 3
-8 1 -14 -3 -14 -5 0 -12 6 -14 13 -4 8 -6 7 -6 -3 -1 -8 12 -21 28 -28 37
-16 75 -3 76 26 0 24 17 31 23 10 2 -9 0 -8 -7 2 -9 12 -10 10 -9 -12 2 -22
10 -30 48 -44 55 -20 158 -89 223 -148 l48 -43 -3 -68 -3 -67 -89 98 c-100
111 -127 127 -158 96 -14 -14 -18 -26 -13 -42 6 -20 114 -145 244 -282 58 -62
27 -55 -61 14 -112 88 -211 195 -249 270 -27 53 -31 70 -27 120 2 32 2 54 -2
49 -3 -6 -11 -6 -19 -1 -8 4 -21 6 -29 2 -9 -3 -13 -1 -9 5 10 16 -25 26 -35
11 -5 -7 -7 -47 -6 -88 5 -117 43 -186 182 -325 61 -61 150 -138 197 -171 l87
-59 7 -142 c10 -198 5 -252 -29 -303 -17 -26 -43 -49 -69 -61 -40 -18 -75 -19
-696 -19 -647 0 -655 0 -699 21 -49 24 -90 78 -98 130 -6 33 -3 37 74 96 169
131 340 327 381 438 56 151 -3 240 -159 240 -84 0 -151 -26 -231 -90 l-44 -35
-3 38 c-2 21 4 235 12 476 10 296 12 445 5 457 -12 23 -61 26 -78 5 -8 -10
-15 -99 -21 -263 -5 -136 -9 -252 -10 -257 0 -7 -400 0 -407 8 -2 1 4 67 12
147 7 79 16 176 19 214 18 237 34 319 81 400 31 53 111 132 160 158 63 32 399
155 407 148 4 -3 54 -91 113 -196z m39 -1315 c49 -18 29 -91 -59 -215 -52 -73
-267 -285 -289 -285 -3 0 -6 26 -6 58 l0 57 75 64 c83 71 185 175 185 188 0
15 -24 42 -40 43 -30 4 -39 -1 -121 -75 l-84 -75 -3 33 c-3 28 4 39 63 95 103
98 207 140 279 112z"/>
<path d="M5110 6509 c0 -5 5 -7 10 -4 6 3 10 8 10 11 0 2 -4 4 -10 4 -5 0 -10
-5 -10 -11z"/>
<path d="M4940 3586 l0 -425 33 -3 c17 -2 47 -1 65 1 l32 3 0 424 0 424 -65 0
-65 0 0 -424z"/>
<path d="M5592 3949 c-96 -13 -169 -83 -180 -175 l-5 -44 67 0 66 0 0 30 c0
45 39 80 88 80 81 0 114 -73 73 -164 -23 -53 -121 -159 -223 -243 -67 -55 -68
-56 -68 -104 l0 -49 225 0 225 0 0 55 0 55 -131 0 -132 0 49 42 c81 70 131
128 166 192 58 110 40 238 -41 292 -46 30 -110 42 -179 33z"/>
<path d="M6701 3949 c-91 -17 -159 -89 -169 -175 l-5 -45 64 3 63 3 7 35 c9
45 41 70 89 70 79 0 111 -74 71 -164 -23 -53 -121 -159 -223 -243 -67 -55 -68
-56 -68 -104 l0 -49 225 0 225 0 0 55 0 55 -130 0 -131 0 66 59 c171 152 223
293 151 414 -41 71 -136 105 -235 86z"/>
<path d="M7215 3949 c-53 -12 -113 -62 -136 -113 -32 -70 -28 -76 46 -76 52 0
65 3 65 15 0 9 11 27 25 40 18 19 35 25 70 25 57 0 85 -25 85 -75 0 -63 -43
-90 -137 -88 -7 0 -13 -20 -15 -52 l-3 -53 59 -7 c76 -8 106 -36 106 -98 0
-57 -30 -88 -89 -89 -50 0 -89 23 -103 63 -10 28 -12 29 -73 29 l-62 0 7 -40
c10 -56 51 -114 97 -136 46 -22 171 -31 223 -15 104 31 157 146 115 248 -19
46 -43 72 -74 85 l-24 9 35 24 c63 43 85 133 48 204 -27 54 -71 87 -130 100
-58 13 -79 12 -135 0z"/>
<path d="M6085 3931 c-53 -24 -99 -77 -121 -143 -29 -82 -25 -281 6 -363 29
-75 81 -129 140 -145 84 -23 205 5 252 57 57 63 90 239 69 371 -18 116 -59
185 -133 223 -50 25 -158 26 -213 0z m174 -126 c40 -34 56 -109 48 -232 -8
-110 -24 -149 -74 -169 -66 -28 -134 6 -153 75 -13 48 -13 202 1 257 23 88
113 123 178 69z"/>
<path d="M2955 3911 c-90 -22 -173 -90 -215 -176 -21 -42 -25 -64 -25 -145 0
-110 21 -166 86 -231 139 -139 392 -122 497 35 47 71 44 76 -37 76 -67 0 -70
-1 -108 -39 -101 -101 -271 -46 -303 99 -24 107 24 222 106 256 75 31 175 9
215 -47 19 -27 25 -29 90 -29 80 0 83 4 39 73 -67 106 -212 160 -345 128z"/>
<path d="M3562 3907 c-148 -54 -179 -229 -55 -313 17 -11 64 -31 104 -44 129
-40 157 -63 144 -121 -7 -33 -48 -59 -90 -59 -36 0 -85 30 -91 56 -4 16 -16
23 -47 27 -52 7 -97 -2 -97 -19 0 -25 22 -69 48 -97 47 -50 99 -70 182 -71 90
-1 156 26 198 82 24 31 27 44 27 109 0 74 0 75 -41 112 -30 28 -65 46 -135 70
-112 37 -139 58 -139 106 0 42 29 65 81 65 39 0 89 -31 89 -56 0 -11 15 -14
65 -14 81 0 81 0 77 30 -6 47 -50 100 -105 126 -58 27 -157 32 -215 11z"/>
<path d="M4193 3906 c-84 -27 -163 -102 -201 -189 -33 -77 -22 -214 24 -294
33 -58 106 -119 167 -139 64 -22 169 -21 235 0 64 21 121 71 155 135 l28 51
-75 0 c-71 0 -76 -1 -95 -29 -46 -65 -165 -78 -242 -27 -100 67 -110 257 -17
343 70 65 213 54 262 -21 15 -24 22 -26 91 -26 41 0 75 2 75 5 0 3 -9 23 -19
44 -25 48 -91 108 -150 134 -58 26 -179 32 -238 13z"/>
<path d="M5970 2595 l0 -315 50 0 50 0 0 145 c0 160 10 201 54 230 33 22 100
21 133 0 43 -29 53 -71 53 -230 l0 -145 48 0 47 0 -3 157 c-3 201 -6 216 -49
264 -58 64 -170 77 -249 29 l-34 -22 0 101 0 101 -50 0 -50 0 0 -315z"/>
<path d="M3840 2580 l0 -300 50 0 50 0 0 198 1 197 45 -95 c25 -52 59 -126 76
-165 62 -144 57 -136 97 -133 l35 3 68 155 c38 85 77 173 88 195 l19 40 0
-197 1 -198 50 0 50 0 0 301 0 300 -51 -3 c-60 -4 -48 14 -165 -248 -47 -107
-90 -199 -93 -203 -4 -4 -54 96 -111 223 l-103 230 -53 0 -54 0 0 -300z"/>
<path d="M4730 2751 c-109 -33 -162 -109 -163 -232 -2 -158 115 -265 267 -244
64 8 94 24 139 74 51 57 49 71 -12 71 -37 0 -53 -5 -63 -18 -57 -81 -226 -36
-228 61 0 16 15 17 180 17 l180 0 0 53 c0 99 -60 186 -149 216 -38 12 -113 13
-151 2z m149 -101 c17 -12 34 -35 39 -53 l8 -32 -124 -3 c-69 -1 -127 0 -131
3 -3 4 3 23 14 43 38 71 127 90 194 42z"/>
<path d="M5295 2746 c-17 -7 -36 -20 -44 -29 -19 -24 -31 -21 -31 8 0 23 -4
25 -45 25 l-45 0 0 -235 0 -235 44 0 c31 0 46 5 50 16 3 9 6 79 6 155 0 77 5
149 10 160 14 25 62 49 100 49 29 0 30 1 30 50 0 45 -2 50 -22 50 -13 -1 -37
-7 -53 -14z"/>
<path d="M5565 2746 c-90 -39 -137 -117 -137 -227 -1 -128 76 -228 188 -245
98 -14 200 32 240 108 22 42 18 48 -33 48 -42 0 -51 -4 -74 -31 -22 -28 -34
-33 -82 -37 -46 -4 -61 -1 -86 17 -35 25 -53 73 -53 140 2 142 129 209 218
115 28 -29 39 -34 78 -34 26 0 46 5 46 10 0 44 -78 123 -137 139 -51 15 -132
13 -168 -3z"/>
</g>
</svg>
