<?xml version="1.0" standalone="no"?>
<!DOCTYPE svg PUBLIC "-//W3C//DTD SVG 20010904//EN"
 "http://www.w3.org/TR/2001/REC-SVG-20010904/DTD/svg10.dtd">
<svg version="1.0" xmlns="http://www.w3.org/2000/svg"
 width="800.000000pt" height="800.000000pt" viewBox="0 0 800.000000 800.000000"
 preserveAspectRatio="xMidYMid meet">

<g transform="translate(0.000000,800.000000) scale(0.100000,-0.100000)"
fill="#000000" stroke="none">
<path d="M3765 7994 c-1185 -78 -2256 -655 -2967 -1600 -424 -562 -687 -1229
-774 -1959 -25 -208 -25 -659 0 -870 91 -777 378 -1467 864 -2077 136 -171
429 -464 602 -602 1391 -1113 3324 -1184 4785 -177 359 247 733 617 992 981
821 1156 963 2685 368 3980 -128 280 -320 589 -521 840 -140 174 -432 467
-604 604 -602 481 -1306 774 -2065 861 -135 15 -556 27 -680 19z m-925 -3994
l0 -1700 -155 0 -155 0 0 1700 0 1700 155 0 155 0 0 -1700z m2630 0 l0 -1700
-155 0 -155 0 0 1700 0 1700 155 0 155 0 0 -1700z m-2358 865 c184 -123 395
-213 606 -257 152 -32 421 -32 569 0 222 48 416 131 614 263 63 43 121 85 128
93 24 28 31 17 31 -48 l0 -64 -85 -58 -85 -57 -2 -506 -3 -506 -52 -3 -53 -3
0 475 c0 262 -1 476 -3 476 -1 0 -52 -22 -112 -49 l-110 -49 -3 -426 -2 -426
-50 0 -50 0 0 411 c0 387 -1 411 -17 404 -18 -6 -191 -45 -205 -45 -5 0 -8
-173 -8 -386 l0 -385 -52 3 -53 3 -3 376 -2 375 -110 0 -110 0 0 -378 0 -378
-55 0 -55 0 0 384 0 385 -57 11 c-57 11 -121 26 -155 36 -17 5 -18 -19 -18
-405 l0 -411 -50 0 -50 0 0 428 0 427 -108 45 c-58 25 -110 47 -114 48 -5 2
-8 -210 -8 -472 l0 -476 -50 0 -50 0 0 504 0 504 -82 58 -83 59 -3 69 -3 69
33 -26 c18 -15 77 -56 130 -92z m-682 15 l0 -59 -57 -39 c-32 -21 -91 -58
-130 -81 l-73 -42 0 -469 0 -470 -50 0 -50 0 0 446 c0 421 -1 446 -17 439 -10
-4 -67 -25 -128 -45 l-110 -38 -3 -401 -2 -401 -50 0 -50 0 0 435 0 435 23 14
c12 8 56 24 98 35 157 43 362 143 494 240 44 33 86 60 93 60 8 1 12 -17 12
-59z m3199 31 c121 -96 320 -199 501 -258 74 -25 140 -49 147 -55 10 -8 13
-108 13 -444 l0 -434 -50 0 -50 0 -2 401 -3 400 -110 38 c-60 21 -118 42 -127
46 -17 7 -18 -18 -18 -439 l0 -446 -50 0 -50 0 0 470 0 469 -72 42 c-40 23
-99 60 -130 82 l-58 40 0 58 c0 37 4 59 11 59 6 0 28 -13 48 -29z m-3201
-1380 c2 -46 -1 -88 -5 -92 -4 -4 -167 -5 -361 -2 l-352 6 0 89 0 88 358 -2
357 -3 3 -84z m2627 -6 l0 -90 -1052 -3 -1053 -2 0 95 0 95 1053 -2 1052 -3 0
-90z m1235 0 l0 -95 -357 2 -358 3 -3 79 c-2 44 -1 85 2 93 4 10 73 13 361 13
l355 0 0 -95z m-4234 -351 c102 -19 184 -28 262 -28 l113 -1 -3 -50 -3 -50
-125 1 c-87 1 -168 9 -267 27 -78 14 -176 29 -218 33 -44 4 -82 13 -91 21 -19
19 -18 48 3 69 23 22 124 15 329 -22z m1094 4 c233 -42 349 -43 555 -3 210 41
380 41 590 0 206 -39 322 -39 558 3 98 18 183 32 188 32 5 0 9 -25 9 -55 0
-55 0 -55 -31 -55 -17 0 -95 -12 -173 -27 -200 -39 -373 -38 -581 2 -208 40
-321 39 -565 -5 -163 -29 -198 -32 -300 -27 -63 3 -178 17 -254 32 -77 14
-153 25 -168 25 -27 0 -28 1 -28 55 0 38 4 55 13 55 7 0 91 -14 187 -32z
m3128 20 c16 -16 15 -53 -2 -71 -9 -8 -46 -17 -92 -20 -43 -4 -143 -19 -223
-33 -97 -18 -185 -27 -261 -28 l-115 -1 -3 50 -3 50 108 2 c69 1 167 12 273
32 176 32 298 39 318 19z m-4251 -300 c125 -22 211 -32 291 -32 l113 -1 -3
-50 -3 -50 -125 1 c-90 1 -174 10 -303 33 -98 17 -195 31 -217 31 -59 0 -84
34 -60 81 16 28 95 25 307 -13z m1158 -6 c195 -36 316 -35 548 6 229 41 306
41 534 0 232 -41 353 -42 548 -6 77 15 161 30 188 34 l47 6 0 -56 c0 -55 -1
-56 -28 -56 -15 0 -93 -12 -172 -27 -212 -39 -364 -38 -615 6 -219 38 -270 38
-500 -4 -227 -42 -326 -43 -548 -6 -103 17 -199 31 -212 31 -24 0 -25 3 -25
56 l0 56 48 -6 c26 -4 110 -19 187 -34z m3093 26 c18 -18 15 -66 -5 -76 -10
-5 -52 -13 -93 -17 -41 -3 -136 -18 -210 -31 -74 -14 -192 -28 -262 -31 l-128
-6 0 54 0 54 113 2 c75 1 166 11 277 31 176 33 288 40 308 20z m-4261 -299
c115 -21 219 -33 293 -34 l115 -3 0 -48 0 -49 -95 -3 c-71 -2 -141 5 -270 27
-96 16 -209 33 -250 37 -83 7 -100 16 -100 50 0 64 53 68 307 23z m1158 -7
c194 -36 340 -35 535 2 235 44 320 45 545 5 243 -43 368 -44 570 -7 77 15 159
29 183 33 l42 7 0 -56 c0 -55 -1 -56 -28 -56 -16 0 -89 -11 -163 -26 -74 -14
-190 -27 -259 -30 -109 -5 -147 -2 -300 24 -293 51 -338 51 -595 0 -55 -10
-156 -22 -225 -25 -109 -4 -147 -1 -303 26 -98 17 -189 31 -202 31 -24 0 -25
3 -25 56 l0 56 43 -7 c23 -4 105 -18 182 -33z m3096 28 c22 -12 26 -62 7 -77
-7 -6 -47 -14 -88 -18 -41 -3 -136 -18 -210 -31 -74 -14 -195 -28 -267 -31
l-133 -6 0 54 0 54 113 1 c73 1 162 10 257 27 218 39 286 45 321 27z"/>
</g>
</svg>
