<svg width="64" height="64" viewBox="0 0 64 64" fill="none" xmlns="http://www.w3.org/2000/svg">
<path d="M50.6667 50.6666H13.3333V21.3333H50.6667M50.6667 7.99996H48V2.66663H42.6667V7.99996H21.3333V2.66663H16V7.99996H13.3333C10.3733 7.99996 8 10.4 8 13.3333V50.6666C8 52.0811 8.5619 53.4377 9.5621 54.4379C10.5623 55.4381 11.9188 56 13.3333 56H50.6667C52.0812 56 53.4377 55.4381 54.4379 54.4379C55.4381 53.4377 56 52.0811 56 50.6666V13.3333C56 11.9188 55.4381 10.5623 54.4379 9.56206C53.4377 8.56186 52.0812 7.99996 50.6667 7.99996ZM44.08 29.4933L41.2533 26.6666L28.24 39.68L22.5867 34.0266L19.76 36.8533L28.24 45.3333L44.08 29.4933Z" fill="url(#paint0_linear_613_1079)"/>
<defs>
<linearGradient id="paint0_linear_613_1079" x1="22.8525" y1="43.7595" x2="59.9038" y2="6.55427" gradientUnits="userSpaceOnUse">
<stop stop-color="#7B3FE4"/>
<stop offset="1" stop-color="#016EEA"/>
</linearGradient>
</defs>
</svg>
