<svg width="64" height="64" viewBox="0 0 64 64" fill="none" xmlns="http://www.w3.org/2000/svg">
<path d="M42.6666 56H21.3333C20.626 56 19.9478 55.7191 19.4477 55.219C18.9476 54.7189 18.6666 54.0406 18.6666 53.3333V32.1867L15.1999 34.9867C14.1599 36 12.4799 36 11.4399 34.9867L3.89328 27.44C2.85328 26.4 2.85328 24.72 3.89328 23.68L19.5733 8H23.9999C23.9999 10.9333 27.5733 13.3333 31.9999 13.3333C36.4266 13.3333 39.9999 10.9333 39.9999 8H44.4266L60.1066 23.68C61.1466 24.72 61.1466 26.4 60.1066 27.44L52.5599 34.9867C51.5199 36 49.8399 36 48.7999 34.9867L45.3333 32.1867V53.3333C45.3333 54.0406 45.0523 54.7189 44.5522 55.219C44.0521 55.7191 43.3739 56 42.6666 56ZM54.4533 25.5467L42.9599 14.08C42.1333 15.0133 41.1466 15.84 39.9999 16.5333C37.7599 17.8667 35.0133 18.6667 31.9999 18.6667C27.4666 18.6667 23.4399 16.8533 21.0399 14.08L9.54661 25.5467L13.3333 29.3333L21.3333 24H23.9999V50.6667H39.9999V24H42.6666L50.6666 29.3333L54.4533 25.5467Z" fill="url(#paint0_linear_613_1083)"/>
<defs>
<linearGradient id="paint0_linear_613_1083" x1="20.9899" y1="44.9836" x2="52.9377" y2="2.0808" gradientUnits="userSpaceOnUse">
<stop stop-color="#7B3FE4"/>
<stop offset="1" stop-color="#016EEA"/>
</linearGradient>
</defs>
</svg>
