<svg width="64" height="64" viewBox="0 0 64 64" fill="none" xmlns="http://www.w3.org/2000/svg">
<path d="M23.9999 8C26.8289 8 29.542 9.12381 31.5424 11.1242C33.5428 13.1246 34.6666 15.8377 34.6666 18.6667H13.3333C13.3333 15.8377 14.4571 13.1246 16.4574 11.1242C18.4578 9.12381 21.1709 8 23.9999 8M31.5733 26.1867L29.3333 48H26.6666V50.6667C26.6666 52.0812 27.2285 53.4377 28.2287 54.4379C29.2289 55.4381 30.5854 56 31.9999 56C33.4144 56 34.771 55.4381 35.7712 54.4379C36.7713 53.4377 37.3333 52.0812 37.3333 50.6667V37.3333C37.3333 34.5044 38.4571 31.7912 40.4574 29.7909C42.4578 27.7905 45.1709 26.6667 47.9999 26.6667H53.3333L50.6666 29.3333L53.3333 32H47.9999C46.5854 32 45.2289 32.5619 44.2287 33.5621C43.2285 34.5623 42.6666 35.9188 42.6666 37.3333V50.6667C42.6666 53.4956 41.5428 56.2088 39.5424 58.2091C37.542 60.2095 34.8289 61.3333 31.9999 61.3333C29.1709 61.3333 26.4578 60.2095 24.4574 58.2091C22.4571 56.2088 21.3333 53.4956 21.3333 50.6667V48H18.6666L16.4266 26.1867C15.1199 24.8533 14.1599 23.2 13.6799 21.3333H34.3199C33.8399 23.2 32.8799 24.8533 31.5733 26.1867ZM23.9999 29.3333C23.2927 29.3333 22.6144 29.6143 22.1143 30.1144C21.6142 30.6145 21.3333 31.2928 21.3333 32C21.3333 32.7072 21.6142 33.3855 22.1143 33.8856C22.6144 34.3857 23.2927 34.6667 23.9999 34.6667C24.7072 34.6667 25.3854 34.3857 25.8855 33.8856C26.3856 33.3855 26.6666 32.7072 26.6666 32C26.6666 31.2928 26.3856 30.6145 25.8855 30.1144C25.3854 29.6143 24.7072 29.3333 23.9999 29.3333Z" fill="url(#paint0_linear_613_1087)"/>
<defs>
<linearGradient id="paint0_linear_613_1087" x1="25.7103" y1="49.0929" x2="62.1815" y2="18.574" gradientUnits="userSpaceOnUse">
<stop stop-color="#7B3FE4"/>
<stop offset="1" stop-color="#016EEA"/>
</linearGradient>
</defs>
</svg>
