<svg width="24" height="25" viewBox="0 0 24 25" fill="none" xmlns="http://www.w3.org/2000/svg">
<path d="M23.643 5.437C22.808 5.807 21.911 6.057 20.968 6.17C21.941 5.58779 22.669 4.67147 23.016 3.592C22.1019 4.13499 21.1014 4.5172 20.058 4.722C19.3564 3.97287 18.4271 3.47633 17.4143 3.30947C16.4016 3.14262 15.3621 3.31479 14.4572 3.79925C13.5524 4.28371 12.8328 5.05336 12.4102 5.9887C11.9875 6.92405 11.8855 7.97275 12.12 8.972C10.2677 8.879 8.45564 8.39755 6.80144 7.55891C5.14723 6.72026 3.68785 5.54316 2.51801 4.104C2.11801 4.794 1.88801 5.594 1.88801 6.446C1.88757 7.213 2.07644 7.96824 2.43789 8.64473C2.79934 9.32122 3.32217 9.89804 3.96001 10.324C3.22029 10.3005 2.49688 10.1006 1.85001 9.741V9.801C1.84994 10.8767 2.22204 11.9194 2.90319 12.752C3.58434 13.5846 4.53258 14.1559 5.58701 14.369C4.9008 14.5547 4.18135 14.5821 3.48301 14.449C3.78051 15.3746 4.36001 16.184 5.14038 16.7639C5.92075 17.3438 6.86293 17.6652 7.83501 17.683C6.18485 18.9784 4.1469 19.6811 2.04901 19.678C1.67739 19.6781 1.30609 19.6564 0.937012 19.613C3.06649 20.9822 5.54535 21.7088 8.07701 21.706C16.647 21.706 21.332 14.608 21.332 8.452C21.332 8.252 21.327 8.05 21.318 7.85C22.2293 7.19097 23.0159 6.3749 23.641 5.44L23.643 5.437V5.437Z" fill="white"/>
</svg>
