<?xml version="1.0" standalone="no"?>
<!DOCTYPE svg PUBLIC "-//W3C//DTD SVG 20010904//EN"
 "http://www.w3.org/TR/2001/REC-SVG-20010904/DTD/svg10.dtd">
<svg version="1.0" xmlns="http://www.w3.org/2000/svg"
 width="64.000000pt" height="64.000000pt" viewBox="0 0 64.000000 64.000000"
 preserveAspectRatio="xMidYMid meet">

<g transform="translate(0.000000,64.000000) scale(0.100000,-0.100000)"
fill="#000000" stroke="none">
<path d="M0 320 l0 -320 320 0 320 0 0 320 0 320 -320 0 -320 0 0 -320z m580
0 l0 -250 -250 0 -250 0 0 250 0 250 250 0 250 0 0 -250z"/>
<path d="M94 545 c-3 -6 -3 -111 -2 -233 l3 -223 233 -2 232 -2 0 235 0 235
-231 0 c-149 0 -233 -4 -235 -10z m276 -54 c0 -17 -5 -19 -35 -14 -23 4 -35 2
-35 -6 0 -7 26 -11 75 -11 56 0 75 -3 75 -13 0 -11 -16 -13 -75 -9 -41 2 -75
2 -75 -2 0 -3 17 -14 38 -23 30 -15 38 -24 40 -51 5 -46 -12 -62 -64 -62 -33
0 -44 4 -44 15 0 13 7 15 34 10 20 -4 36 -2 40 4 5 8 -12 11 -53 11 -48 0 -65
4 -81 20 -37 37 -14 100 37 100 12 0 23 4 23 9 0 20 33 41 66 41 27 0 34 -4
34 -19z m80 -131 c0 -16 -7 -20 -30 -20 -20 0 -30 5 -30 15 0 8 6 12 14 9 8
-3 17 -1 21 5 10 18 25 12 25 -9z m-275 -100 c3 -5 -2 -10 -12 -11 -16 0 -16
-1 1 -8 15 -6 16 -10 7 -15 -17 -11 -35 8 -28 28 7 18 23 21 32 6z m45 -15 c0
-16 -6 -25 -15 -25 -9 0 -15 9 -15 25 0 16 6 25 15 25 9 0 15 -9 15 -25z m45
15 c4 -6 3 -9 -2 -8 -4 2 -9 -1 -9 -7 -1 -5 3 -9 10 -7 7 2 7 -1 -1 -9 -17
-17 -38 3 -30 25 7 18 23 21 32 6z m42 -37 c-3 -10 -5 -2 -5 17 0 19 2 27 5
18 2 -10 2 -26 0 -35z m59 19 c1 -12 -4 -22 -11 -22 -7 0 -12 11 -12 25 0 31
22 28 23 -3z m40 -8 c-5 -13 -10 -14 -18 -6 -6 6 -8 18 -4 28 5 13 10 14 18 6
6 -6 8 -18 4 -28z m42 11 c-1 -14 -8 -25 -15 -25 -11 0 -12 20 -4 48 1 1 5 2
11 2 5 0 9 -11 8 -25z m42 10 c0 -8 0 -18 0 -22 0 -5 -6 -8 -12 -8 -12 0 -18
22 -11 38 7 13 23 7 23 -8z"/>
<path d="M224 426 c-15 -39 -1 -51 64 -54 43 -2 62 0 57 7 -3 6 -15 11 -25 11
-10 0 -27 11 -38 25 -22 28 -50 33 -58 11z"/>
<path d="M391 244 c0 -11 3 -14 6 -6 3 7 2 16 -1 19 -3 4 -6 -2 -5 -13z"/>
</g>
</svg>
